<?xml version="1.0" encoding="utf-8"?>
<!-- Generator: Adobe Illustrator 16.0.0, SVG Export Plug-In . SVG Version: 6.00 Build 0)  -->
<!DOCTYPE svg PUBLIC "-//W3C//DTD SVG 1.1//EN" "http://www.w3.org/Graphics/SVG/1.1/DTD/svg11.dtd">
<svg version="1.1" id="Capa_1" xmlns="http://www.w3.org/2000/svg" xmlns:xlink="http://www.w3.org/1999/xlink" x="0px" y="0px"
	 width="30px" height="30px" viewBox="0 0 30 30" enable-background="new 0 0 30 30" xml:space="preserve">
<circle fill="#FFFFFF" cx="15" cy="15" r="15"/>
<path fill="#012137" d="M21.719,8.281C21.45,8.01,21.014,8.01,20.743,8.279c-0.001,0-0.001,0.001-0.002,0.002l-5.739,5.741
	L9.261,8.281c-0.271-0.271-0.709-0.271-0.979,0c-0.271,0.27-0.271,0.708,0,0.979l5.74,5.741l-5.74,5.738
	c-0.271,0.268-0.274,0.704-0.006,0.976c0.131,0.133,0.31,0.207,0.496,0.205c0.184,0,0.36-0.072,0.489-0.203l5.741-5.738l5.739,5.738
	c0.134,0.135,0.31,0.203,0.487,0.203c0.176,0,0.354-0.068,0.488-0.203c0.271-0.27,0.271-0.707,0-0.978l-5.738-5.738l5.738-5.741
	C21.988,8.99,21.988,8.554,21.719,8.281z"/>
</svg>
